<?xml version="1.0" encoding="UTF-8"?><svg id="b" xmlns="http://www.w3.org/2000/svg" viewBox="0 0 1079.9 755.07"><g id="c"><g><path d="m665.64,198.1c-1.9-3.8-2.9-5.7-7.9-2-17.3,13-35.6,24.7-52.9,37.6-7.2,5.4-13.7,8.8-23.1,6-12-3.6-24.7-1.6-37.1-2.1-12.8-.6-25.5.2-38.3,1.1-7.7.5-16.1,5.4-23,.9-19.5-13-38.2-27-57.2-40.7-8.9-6.5-8.9-6.6-13.7,3-23.6,46.8-47,93.7-72.1,139.6-12.6,23.1-16.9,48.7-13.2,74.3,6.4,44.7,31.7,78.4,67.9,103.9,42.8,30.2,91.1,44.2,143.7,43.5,20-.2,39.9-1.3,59.6-5.9,51.3-12,96.2-34.7,128.1-77.8,25.8-34.9,33.9-74,21.5-116.5-6.9-23.8-21-44-31.9-65.7-16.7-33.1-33.6-66.1-50.4-99.2Zm-223.8,235.5c-17.4,1-34.6-17.9-34.8-35.9-.2-14.1,15.1-36,34.5-33.4,20.7-1.2,35.4,14.9,35.2,34-.2,22.3-17.1,34.2-34.9,35.3Zm231.1-34.7c-.6,21.5-16.2,33.3-34.7,34.6-17.3,1.3-35.1-17.7-35-35.6.2-18.5,15.9-33.6,35.2-33.6,19.7-.9,35.1,14.5,34.5,34.6Z" fill="#ffffff" opacity="1"/><path d="m521.14,754.6h-200.7c-10.1,0-20.2.7-30.3.4-29.2-1-58.5-1.3-87.6-3.7-36-3-72.2-6.5-106.5-19.3-34.7-12.9-57.8-36.9-70.1-71.7-10.4-29.5-16.3-60-20.6-90.9C1.54,542.1.04,514.9.04,487.5c.1-82.1-.3-164.2.3-246.2.2-26.3,3.6-52.4,8.4-78.4,3.9-21.1,8.5-41.8,15.1-62.3,13.4-41.8,41.1-68.3,82.9-80.6,19.2-5.6,38.8-8.7,58.6-10.8,28.7-3.1,57.6-4.1,86.4-5.8,19.3-1.1,38.5-.7,57.7-1.2C457.14-1.8,604.94.9,752.64.8c21.1,0,42.3-.1,63.3,1.6,21.8,1.7,43.6,1.4,65.3,3.4,35.6,3.4,71.2,6.6,105,19.6,31.6,12.1,53.3,33.5,65,65.4,11,29.9,17.3,60.8,21.4,92.3,2.9,21.9,4.5,43.8,5.4,65.9,3.5,82.9,1,165.7,1,248.6,0,10-7.8,88.4-10.1,100.3-4.3,22.2-9.7,44-17.2,65.5-12.9,37.2-39.4,58.6-75.3,70.6-23.4,7.8-47.5,11.9-72.1,14.4-28.8,2.9-57.6,4.5-86.5,5.3-98.9,2.2-197.8.9-296.7.9Zm17.6-191.4c20-.2,39.9-1.3,59.6-5.9,51.3-12,96.2-34.7,128.1-77.8,25.8-34.9,33.9-74,21.5-116.5-6.9-23.8-21-44-31.9-65.7-16.7-33.1-33.6-66.1-50.4-99.2-1.9-3.8-2.9-5.7-7.9-2-17.3,13-35.6,24.7-52.9,37.6-7.2,5.4-13.7,8.8-23.1,6-12-3.6-24.7-1.6-37.1-2.1-12.8-.6-25.5.2-38.3,1.1-7.7.5-16.1,5.4-23,.9-19.5-13-38.2-27-57.2-40.7-8.9-6.5-8.9-6.6-13.7,3-23.6,46.8-47,93.7-72.1,139.6-12.6,23.1-16.9,48.7-13.2,74.3,6.4,44.7,31.7,78.4,67.9,103.9,42.8,30.2,91.1,44.2,143.7,43.5Z" fill="#ff3579"/><path d="m441.54,364.3c20.7-1.2,35.4,14.9,35.2,34-.2,22.3-17.1,34.2-34.9,35.3-17.4,1-34.6-17.9-34.8-35.9-.2-14.1,15.1-36,34.5-33.4Z" fill="#ff3579"/><path d="m638.44,364.3c19.7-.9,35.1,14.5,34.5,34.6-.6,21.5-16.2,33.3-34.7,34.6-17.3,1.3-35.1-17.7-35-35.6.2-18.5,15.9-33.6,35.2-33.6Z" fill="#ff3579"/></g></g></svg>