<?xml version="1.0" encoding="UTF-8"?><svg id="b" xmlns="http://www.w3.org/2000/svg" viewBox="0 0 333.03 335.84"><g id="c"><g><path d="m232.62,184.33c9.17,10.61,18.35,21.21,27.5,31.84,8.98,10.45,18.01,20.86,26.82,31.44,2.17,2.6,3.05,1.72,4.5-.45,8.79-13.2,17.74-26.3,26.45-39.55,2.02-3.07,4.65-3.46,7.7-2.9,2.16.4,3.74,2.15,3.65,4.19-.15,3.4.88,6.65.8,9.99-.22,9.22.68,18.4.92,27.6.27,10.52,1.37,21.02,1.36,31.57,0,.84.31,1.69.45,2.54.54,3.25.47,6.17-1.76,9.11-10.9,14.34-21.58,28.86-32.34,43.3-1.44,1.93-3.35,2.84-5.8,2.83-19.1-.07-38.19-.1-57.29-.14,0-3.92,0-7.84,0-11.76,1.99-.27,3.94.22,5.5-2.14,13.11-19.8,26.36-39.5,39.72-59.12,1.22-1.8.94-2.59-.26-4-9.47-11.05-18.88-22.14-28.25-33.26-1.25-1.49-2.44-1.73-4.22-1.05-4.61,1.77-9.28,3.36-13.92,5.02-1.54-.66-1.6-1.99-1.58-3.39.03-2.82.02-5.64.03-8.46,2.08-.81,4.11-1.85,6.26-2.39,2.94-.74,2.93-2.04,1.22-4.04-3.31-3.85-6.93-7.44-9.77-11.69,0-3.69,0-7.38.04-11.06.02-1.74.05-3.54,2.3-4.02Zm21.4,139.47c12.15,0,23.48-.06,34.81.05,1.95.02,2.6-1.35,3.41-2.42,9.18-12.11,18.27-24.29,27.39-36.45,1-1.33,1.53-2.78,1.31-4.51-1.01-8-1.24-16.06-1.4-24.1-.15-7.33-1.26-14.62-.86-21.97.07-1.35-.62-2.74-1.1-4.69-21.26,31.47-42.16,62.42-63.56,94.1Z" fill="#b948ff"/><path d="m232.62,184.33c-2.26.49-2.28,2.29-2.3,4.02-.04,3.69-.03,7.37-.04,11.06-.95-.97-1.96-1.9-2.84-2.93-10.75-12.58-21.52-25.15-32.17-37.81-1.9-2.25-2.76-1.97-4.13.43-2.34,4.11-4.94,8.07-7.55,12.01-1.69,2.55-3.77,4.67-7.26,4.25-.44-4.5.95-9.11-.82-13.53.13-.35.19-.74.39-1.04,11.36-18.01,22.69-36.05,34.15-54,1.57-2.45,1.72-4.24-.01-6.7-10.31-14.68-20.69-29.34-30.56-44.32-3.61-5.48-7.27-9.51-14.37-8.24,0-3.89-.01-7.77-.02-11.66,7.24,1.11,12.74-2.12,18.28-6.39,12.02-9.25,24.43-17.99,36.7-26.92,1.8-1.31,3.61-2.8,6.04-2.45,4.11.58,5.46,2.89,5.09,7.35-.36,4.44-.34,8.9-.74,13.36-.9,10.12-.92,20.32-1.69,30.46-.89,11.61-1.8,23.21-2.25,34.84-.23,5.92-.96,11.83-1.38,17.74-.12,1.73-.97,3.09-1.83,4.44-3.85,6.08-7.79,12.11-11.67,18.18-3.81,5.96-7.51,11.99-11.44,17.87-1.22,1.83.43,2.18,1.08,2.95,10.42,12.36,20.89,24.68,31.35,37.01Zm-14.97-150.68c-.28-.06-.56-.11-.85-.17-5.45,9.49-10.91,18.99-16.36,28.48-.57,1-.99,1.91-.17,3.08,4.59,6.57,9.11,13.17,14.04,20.33,1.15-17.8,2.24-34.76,3.34-51.73Zm-25.8,19.27c4.45-7.74,8.48-14.75,12.51-21.77.31-.53.72-1.19.04-1.64-.67-.45-1.39-.19-2.04.31-5.27,4.04-10.53,8.08-15.83,12.08-1.15.86-1.24,1.61-.39,2.78,1.83,2.5,3.54,5.1,5.72,8.25Z" fill="#cc58ff"/><path d="m48.83,171.71c-5.21-8.04-10.48-16.04-15.62-24.12-7.95-12.52-15.59-25.24-23.81-37.57-3.37-5.06-3.54-10.52-3.93-16.01-.79-11-1.39-22.02-2.16-33.02-.33-4.69-.73-9.4-.92-14.11-.42-10.28-1.14-20.53-2.13-30.78-.35-3.59-.33-7.25-.04-10.84C.63.41,5.93-1.59,10.12,1.43c8.45,6.09,16.85,12.26,25.26,18.41,6.84,5,13.67,10.01,20.47,15.07.86.64,1.75.9,2.76.97,0,3.91.02,7.82.02,11.73-.44.44-.98.81-1.32,1.31-12.2,17.6-24.37,35.22-36.62,52.78-1.01,1.45-.66,2.33.15,3.61,6.28,9.84,12.55,19.68,18.68,29.61,3.65,5.92,7.82,11.52,10.9,17.79-1.25,1.15-1.63,2.54-1.59,4.26.1,4.91.01,9.83,0,14.74ZM27.17,29.13c-.29-.18-.57-.36-.87-.51-.03-.01-.15.17-.23.26.32.14.64.28.97.41,1.63,5.72,5.4,10.31,8.25,15.38,4.84,8.61,4.94,8.56,10.28.11.07-.1.15-.2.24-.29.88-.97.65-1.81-.35-2.49-6.16-4.19-11.81-9.12-18.28-12.88Zm-10.28,56.21c4.3-4.71,6.51-9.73,10.07-13.62,4.87-5.32,5.16-10.01.89-16.02-4.53-6.37-7.96-13.51-11.87-20.32-.37-.64-.7-1.57-1.52-1.43-1.23.21-.83,1.39-.77,2.16.12,1.6.67,3.19.64,4.77-.19,10.2,1.35,20.3,1.73,30.48.16,4.26.4,8.6.83,13.99Z" fill="#fc7fff"/><path d="m48.83,171.71c.01-4.92.1-9.83,0-14.74-.03-1.72.34-3.11,1.59-4.26,1.67,2.47,3.56,4.83,4.96,7.45,1.43,2.67,3.34,3.42,6.29,3.39,11.73-.09,23.47.09,35.2.17.45,3.9-1.06,7.96.9,11.74-.17.6-.3,1.21-.5,1.8-11.11,33.5-22.72,66.84-33.3,100.52-1.27,4.05-1.32,4.05,2.96,4.05,9.87,0,19.74-.18,29.61.09,3.31.09,4.64-1.23,5.57-4.05,2.12-6.46,4.41-12.87,6.64-19.3,2.08.28,1.57,1.91,1.57,3.18.03,7.07-.01,14.14.05,21.21.01,1.22-.7,2.88,1.33,3.35-1.59,7.13-5.03,13.68-7.13,21.29,3.65-1.64,5.28-4.68,7.98-6.37.3,1.54.46,3,.29,4.67-.31,3.07-1.47,6.69,2.11,8.97-2.96,2.72-5.92,5.44-8.87,8.16l.64.9h8.88c0,3.93,0,7.85,0,11.78-7.99.04-15.98.14-23.97.09-5.53-.03-8.03-3.66-6.22-9.13,3.15-9.54,6.48-19.02,9.72-28.53,1.46-4.29,1.45-4.3-2.94-4.31-11.86-.01-23.73,0-35.59-.02-7.34,0-9.79-3.31-7.51-10.12,7.53-22.54,15.2-45.04,22.55-67.64,4.13-12.7,8.1-25.46,12.66-38.01,1.01-2.79-.55-2.58-2.3-2.58-8.99,0-17.98-.02-26.97-.01-2.83,0-5.18-.75-6.2-3.74Z" fill="#ea70ff"/><path d="m232.57,217.53c0,2.82,0,5.64-.03,8.46-.02,1.4.04,2.73,1.58,3.39-.28.23-.52.55-.84.67-13.71,5.2-27.4,10.45-41.16,15.5-1.99.73-2.22,1.15-1.73,3.3,5.45,23.92,10.69,47.89,15.97,71.85.49,2.22,1.55,3.22,4.09,3.18,8.37-.14,16.74.02,25.1.06,0,3.92,0,7.84,0,11.76-23.49,0-46.98,0-70.47,0,0-3.92,0-7.84,0-11.76,8.74-.04,17.49-.29,26.22-.01,3.43.11,3.45-1.39,2.92-3.74-1.08-4.8-2.25-9.58-3.33-14.39-3.35-14.91-6.76-29.81-9.97-44.75-1.37-6.4-1.17-6.44-5.99-2.84-.2-5.07.05-10.17-.85-15.21,2.33-2.03,4.04-4.92,7.02-6.05,17.13-6.54,34.3-12.96,51.46-19.42Z" fill="#cc58ff"/><path d="m58.63,47.6c0-3.91-.02-7.82-.02-11.73,19.49,0,38.99,0,58.48,0,0,3.89.01,7.79.02,11.68-19.49.45-38.98.31-58.47.04Z" fill="#ea70ff"/><path d="m165.09,323.94c0,3.92,0,7.84,0,11.76-16.49,0-32.99,0-49.48,0,0-3.93,0-7.85,0-11.78,16.49,0,32.99,0,49.48.01Z" fill="#dc65ff"/><path d="m117.11,47.56c0-3.89-.01-7.79-.02-11.68,15.99,0,31.99,0,47.98,0,0,3.89.01,7.77.02,11.66-15.99.42-31.99.35-47.98.01Z" fill="#dc65ff"/><path d="m96.88,163.72c6.22-.08,12.45-.21,18.67-.22,18.44-.04,36.88-.03,55.33-.02,1.76,0,3.51.14,4.62-1.63,1.77,4.42.37,9.03.82,13.53-7.49.04-14.99.21-22.48.04-2.91-.07-4.29.65-5.29,3.62-7.05,21.06-14.34,42.04-21.57,63.04-5.08,14.75-10.18,29.49-15.27,44.23-2.04-.47-1.32-2.14-1.33-3.35-.06-7.07-.01-14.14-.05-21.21,0-1.27.5-2.89-1.57-3.18.21-.83.36-1.69.63-2.5,5.91-17.36,11.83-34.73,17.77-52.08,2.89-8.45,5.67-16.93,8.78-25.3,1.16-3.12-.09-3.26-2.57-3.24-11.86.06-23.72.02-35.58.02-1.96-3.79-.45-7.84-.9-11.74Z" fill="#dc65ff"/><path d="m27.03,29.29c-.32-.14-.64-.28-.97-.41.08-.09.21-.27.23-.26.3.15.58.34.87.51,0,0-.14.16-.14.16Z" fill="#fff"/><path d="m174.94,258.21c-3.72,3.65-7.38,7.37-11.18,10.94-16.24,15.26-32.53,30.48-48.8,45.72-3.58-2.28-2.42-5.89-2.11-8.97.17-1.67.01-3.13-.29-4.67,11.88-11.35,23.74-22.71,35.63-34.04,7.57-7.21,15.19-14.37,22.81-21.54.99-.93,2.06-1.77,3.09-2.65.9,5.04.65,10.13.85,15.21Z" fill="#dc65ff"/></g></g></svg>