<?xml version="1.0" encoding="utf-8"?>
<!-- Generator: Adobe Illustrator 27.1.1, SVG Export Plug-In . SVG Version: 6.00 Build 0)  -->
<svg version="1.1" id="Layer_1" xmlns="http://www.w3.org/2000/svg" xmlns:xlink="http://www.w3.org/1999/xlink" x="0px" y="0px"
	 viewBox="0 0 1080 1080" style="enable-background:new 0 0 1080 1080;" xml:space="preserve">
<style type="text/css">
	.st0{fill:#FF3579;}
</style>
<g>
	<path class="st0" d="M521.1,917.1c-66.9,0-133.8,0-200.7,0c-10.1,0-20.2,0.7-30.3,0.4c-29.2-1-58.5-1.3-87.6-3.7
		c-36-3-72.2-6.5-106.5-19.3c-34.7-12.9-57.8-36.9-70.1-71.7c-10.4-29.5-16.3-60-20.6-90.9C1.5,704.6,0,677.4,0,650
		c0.1-82.1-0.3-164.2,0.3-246.2c0.2-26.3,3.6-52.4,8.4-78.4c3.9-21.1,8.5-41.8,15.1-62.3c13.4-41.8,41.1-68.3,82.9-80.6
		c19.2-5.6,38.8-8.7,58.6-10.8c28.7-3.1,57.6-4.1,86.4-5.8c19.3-1.1,38.5-0.7,57.7-1.2c147.7-4,295.5-1.3,443.2-1.4
		c21.1,0,42.3-0.1,63.3,1.6c21.8,1.7,43.6,1.4,65.3,3.4c35.6,3.4,71.2,6.6,105,19.6c31.6,12.1,53.3,33.5,65,65.4
		c11,29.9,17.3,60.8,21.4,92.3c2.9,21.9,4.5,43.8,5.4,65.9c3.5,82.9,1,165.7,1,248.6c0,10-7.8,88.4-10.1,100.3
		c-4.3,22.2-9.7,44-17.2,65.5c-12.9,37.2-39.4,58.6-75.3,70.6c-23.4,7.8-47.5,11.9-72.1,14.4c-28.8,2.9-57.6,4.5-86.5,5.3
		C718.9,918.4,620,917.1,521.1,917.1z M538.7,725.7c20-0.2,39.9-1.3,59.6-5.9c51.3-12,96.2-34.7,128.1-77.8
		c25.8-34.9,33.9-74,21.5-116.5c-6.9-23.8-21-44-31.9-65.7c-16.7-33.1-33.6-66.1-50.4-99.2c-1.9-3.8-2.9-5.7-7.9-2
		c-17.3,13-35.6,24.7-52.9,37.6c-7.2,5.4-13.7,8.8-23.1,6c-12-3.6-24.7-1.6-37.1-2.1c-12.8-0.6-25.5,0.2-38.3,1.1
		c-7.7,0.5-16.1,5.4-23,0.9c-19.5-13-38.2-27-57.2-40.7c-8.9-6.5-8.9-6.6-13.7,3c-23.6,46.8-47,93.7-72.1,139.6
		c-12.6,23.1-16.9,48.7-13.2,74.3c6.4,44.7,31.7,78.4,67.9,103.9C437.8,712.4,486.1,726.4,538.7,725.7z"/>
	<path class="st0" d="M441.5,526.8c20.7-1.2,35.4,14.9,35.2,34c-0.2,22.3-17.1,34.2-34.9,35.3c-17.4,1-34.6-17.9-34.8-35.9
		C406.8,546.1,422.1,524.2,441.5,526.8z"/>
	<path class="st0" d="M638.4,526.8c19.7-0.9,35.1,14.5,34.5,34.6c-0.6,21.5-16.2,33.3-34.7,34.6c-17.3,1.3-35.1-17.7-35-35.6
		C603.4,541.9,619.1,526.8,638.4,526.8z"/>
</g>
</svg>
